<mxfile host="Electron" modified="2024-03-29T08:52:11.499Z" agent="Mozilla/5.0 (Macintosh; Intel Mac OS X 10_15_7) AppleWebKit/537.36 (KHTML, like Gecko) draw.io/24.1.0 Chrome/120.0.6099.109 Electron/28.1.0 Safari/537.36" etag="X65ICnqN7h_WtupysdbV" version="24.1.0" type="device">
  <diagram name="第 1 页" id="5HAfSekI-rI9VkYCY6co">
    <mxGraphModel dx="1026" dy="653" grid="1" gridSize="10" guides="1" tooltips="1" connect="1" arrows="1" fold="1" page="1" pageScale="1" pageWidth="1600" pageHeight="1200" math="0" shadow="0">
      <root>
        <mxCell id="0" />
        <mxCell id="1" parent="0" />
        <mxCell id="x0zW40fGNQmHzZbWEuv--12" value="Instruction" style="text;html=1;align=center;verticalAlign=middle;whiteSpace=wrap;rounded=0;fontSize=24;" parent="1" vertex="1">
          <mxGeometry x="730" y="490" width="140" height="30" as="geometry" />
        </mxCell>
        <mxCell id="x0zW40fGNQmHzZbWEuv--16" value="Stack" style="text;html=1;align=center;verticalAlign=middle;whiteSpace=wrap;rounded=0;fontSize=24;" parent="1" vertex="1">
          <mxGeometry x="970" y="490" width="80" height="30" as="geometry" />
        </mxCell>
        <mxCell id="x0zW40fGNQmHzZbWEuv--17" value="" style="shape=flexArrow;endArrow=classic;html=1;rounded=0;" parent="1" edge="1">
          <mxGeometry width="50" height="50" relative="1" as="geometry">
            <mxPoint x="630" y="430" as="sourcePoint" />
            <mxPoint x="700" y="430" as="targetPoint" />
          </mxGeometry>
        </mxCell>
        <mxCell id="r6avdHMlUY2xSoxUsx3Y-1" value="rest" style="rounded=0;whiteSpace=wrap;html=1;fontSize=24;" parent="1" vertex="1">
          <mxGeometry x="950" y="440" width="120" height="40" as="geometry" />
        </mxCell>
        <mxCell id="r6avdHMlUY2xSoxUsx3Y-9" value="Func" style="rounded=0;whiteSpace=wrap;html=1;fontSize=24;verticalAlign=top;" parent="1" vertex="1">
          <mxGeometry x="420" y="350" width="180" height="90" as="geometry" />
        </mxCell>
        <mxCell id="r6avdHMlUY2xSoxUsx3Y-10" value="Instruction" style="text;html=1;align=center;verticalAlign=middle;whiteSpace=wrap;rounded=0;fontSize=24;" parent="1" vertex="1">
          <mxGeometry x="230" y="490" width="140" height="30" as="geometry" />
        </mxCell>
        <mxCell id="r6avdHMlUY2xSoxUsx3Y-11" value="Stack" style="text;html=1;align=center;verticalAlign=middle;whiteSpace=wrap;rounded=0;fontSize=24;" parent="1" vertex="1">
          <mxGeometry x="470" y="490" width="80" height="30" as="geometry" />
        </mxCell>
        <mxCell id="r6avdHMlUY2xSoxUsx3Y-12" value="rest" style="rounded=0;whiteSpace=wrap;html=1;fontSize=24;" parent="1" vertex="1">
          <mxGeometry x="450" y="440" width="120" height="40" as="geometry" />
        </mxCell>
        <mxCell id="r6avdHMlUY2xSoxUsx3Y-13" value="&lt;font style=&quot;font-size: 24px;&quot;&gt;tail&lt;/font&gt;" style="rounded=0;whiteSpace=wrap;html=1;fontSize=24;" parent="1" vertex="1">
          <mxGeometry x="220" y="440" width="160" height="40" as="geometry" />
        </mxCell>
        <mxCell id="r6avdHMlUY2xSoxUsx3Y-14" value="params/locals" style="rounded=0;whiteSpace=wrap;html=1;fontSize=24;fillColor=#e1d5e7;strokeColor=#9673a6;" parent="1" vertex="1">
          <mxGeometry x="430" y="390" width="160" height="40" as="geometry" />
        </mxCell>
        <mxCell id="r6avdHMlUY2xSoxUsx3Y-15" value="x&amp;nbsp; &amp;nbsp; &amp;nbsp; y" style="rounded=0;whiteSpace=wrap;html=1;fontSize=24;fillColor=#fff2cc;strokeColor=#d6b656;" parent="1" vertex="1">
          <mxGeometry x="220" y="280" width="160" height="40" as="geometry" />
        </mxCell>
        <mxCell id="r6avdHMlUY2xSoxUsx3Y-16" value="&lt;span style=&quot;font-size: 24px;&quot;&gt;EndOfFrame&lt;/span&gt;" style="rounded=0;whiteSpace=wrap;html=1;fillColor=#ffe6cc;strokeColor=#d79b00;" parent="1" vertex="1">
          <mxGeometry x="220" y="400" width="160" height="40" as="geometry" />
        </mxCell>
        <mxCell id="dlg94dJ_OGe8THvvM1O9-1" value="&lt;font style=&quot;font-size: 24px;&quot;&gt;tail&lt;/font&gt;" style="rounded=0;whiteSpace=wrap;html=1;fontSize=24;" parent="1" vertex="1">
          <mxGeometry x="720" y="440" width="160" height="40" as="geometry" />
        </mxCell>
        <mxCell id="18s8LlT3UqDZKQIxHjfj-1" value="params/locals" style="rounded=0;whiteSpace=wrap;html=1;fontSize=24;fillColor=#e1d5e7;strokeColor=#9673a6;" vertex="1" parent="1">
          <mxGeometry x="720" y="280" width="160" height="40" as="geometry" />
        </mxCell>
        <mxCell id="18s8LlT3UqDZKQIxHjfj-2" value="x + y" style="rounded=0;whiteSpace=wrap;html=1;fontSize=24;fillColor=#d5e8d4;strokeColor=#82b366;" vertex="1" parent="1">
          <mxGeometry x="430" y="270" width="160" height="40" as="geometry" />
        </mxCell>
        <mxCell id="18s8LlT3UqDZKQIxHjfj-3" value="x + y" style="rounded=0;whiteSpace=wrap;html=1;fontSize=24;fillColor=#d5e8d4;strokeColor=#82b366;" vertex="1" parent="1">
          <mxGeometry x="930" y="400" width="160" height="40" as="geometry" />
        </mxCell>
        <mxCell id="18s8LlT3UqDZKQIxHjfj-4" value="..." style="rounded=0;whiteSpace=wrap;html=1;fontSize=24;" vertex="1" parent="1">
          <mxGeometry x="430" y="310" width="160" height="40" as="geometry" />
        </mxCell>
      </root>
    </mxGraphModel>
  </diagram>
</mxfile>
